<svg version="1.1" id="svg1" width="2933.3333" height="2933.3333" viewBox="0 0 2933.3333 2933.3333" sodipodi:docname="c0a6168c-9205-489d-a747-11e13e2742d1.eps" xmlns:inkscape="http://www.inkscape.org/namespaces/inkscape" xmlns:sodipodi="http://sodipodi.sourceforge.net/DTD/sodipodi-0.dtd" xmlns="http://www.w3.org/2000/svg" xmlns:svg="http://www.w3.org/2000/svg">
  <defs id="defs1"></defs>
  <sodipodi:namedview id="namedview1" pagecolor="#ffffff" bordercolor="#000000" borderopacity="0.25" inkscape:showpageshadow="2" inkscape:pageopacity="0.0" inkscape:pagecheckerboard="0" inkscape:deskcolor="#d1d1d1">
    <inkscape:page x="0" y="0" inkscape:label="1" id="page1" width="2933.3333" height="2933.3333" margin="0" bleed="0"></inkscape:page>
  </sodipodi:namedview>
  <g id="g1" inkscape:groupmode="layer" inkscape:label="1">
    <g id="group-R5">
      
      <path id="path3" d="m 19567.1,10440.7 c -293.7,-788.4 -723.2,-1530 -1276.7,-2204 C 17603.9,7400.6 16828.5,6676.6 15985.8,6085 15174,5515.1 14336.1,5092.6 13495.4,4829.2 12661.1,4567.8 11868.3,4477 11139.1,4559.4 c -461,52.1 -884.1,172.6 -1264.98,359.8 -184.9,90.9 -175.04,357 15.82,434.6 659.26,267.9 1245.46,588 1750.06,956 1088.7,793.7 1828.7,1829.8 2139.8,2996.4 153.3,574.3 203.2,1183.1 251.4,1771.9 41.3,503.3 83.9,1023.9 191.7,1506.2 218.4,976.9 739.8,1856.1 1508,2542.4 663.5,592.8 1478.8,1014 2377.9,1231.6 206.2,49.9 422.8,-11.1 572.5,-161.4 385,-386.6 691.7,-844.6 914.3,-1366.4 272.2,-638.3 408.1,-1344.9 404.1,-2100.4 -4.2,-759.8 -149.7,-1530.1 -432.6,-2289.4 z M 7818.83,9357.4 c 172.65,1777.5 1051.67,3711.3 2475.07,5444.9 553.5,674.1 1197.3,1239.8 1913.5,1681.4 689.7,425.2 1416.9,717.9 2161.4,869.8 380.6,77.7 755.7,116.5 1122.7,116.5 346.7,0 686.3,-34.7 1016.2,-104.1 329.3,-69.2 642.5,-171.9 937.5,-307.2 196.8,-90.2 183.2,-374.8 -21.2,-445.9 -739.9,-257.1 -1413.9,-649.4 -1984.9,-1159.5 -836.8,-747.7 -1405.2,-1706.7 -1643.6,-2773.5 -114.4,-511.9 -158.3,-1047.7 -200.8,-1566 -46.6,-569.5 -94.9,-1158.3 -238,-1694.7 -285.1,-1068.7 -967.9,-2021.5 -1974.7,-2755.4 -550.6,-401.6 -1207.3,-743.8 -1957.25,-1020.6 -249.29,-92 -528.98,-16.3 -698.35,188.5 -725.72,877.4 -1045.79,2102.9 -907.57,3525.8" style="fill:#56332e;fill-opacity:1;fill-rule:nonzero;stroke:none" transform="matrix(0.13333333,0,0,-0.13333333,0,2933.3333)" data-index="1"></path>
      <path id="path4" d="m 9792.64,16483.6 c -689.77,425.3 -1416.98,717.9 -2161.38,869.9 -380.69,77.6 -755.68,116.5 -1122.79,116.5 -346.75,0 -686.26,-34.7 -1016.15,-104 -329.34,-69.3 -642.47,-172 -937.53,-307.2 -196.75,-90.2 -183.18,-374.9 21.24,-446 739.91,-257.2 1413.91,-649.3 1984.88,-1159.5 836.81,-747.6 1405.16,-1706.7 1643.62,-2773.5 33.18,-148.1 60.33,-298.3 83.32,-449.5 431.27,949.5 1022.28,1891.4 1752.25,2780.5 224.3,273.3 463,529.5 715,767.5 -303.5,261.6 -625,497.2 -962.46,705.3 z M 9729.25,4624.4 c -203.1,99.9 -324.41,302.3 -316.42,528.3 1.86,52.6 10.62,103.4 25.51,151.4 -75,-18.7 -151.97,-28.1 -229.81,-28.1 -285.22,0 -553.24,126.1 -735.21,346.2 -392.95,475.1 -676.52,1042.1 -842.72,1685.6 -164.34,636.2 -211.09,1336.5 -138.72,2081.3 62.96,648.7 216.13,1316.5 451.96,1987.5 -35.58,408.1 -80.14,820.2 -166.74,1207.7 -218.32,976.9 -739.81,1856.1 -1507.97,2542.4 -663.49,592.8 -1478.84,1014 -2377.95,1231.7 -206.16,49.8 -422.83,-11.3 -572.5,-161.5 -384.96,-386.6 -691.74,-844.6 -914.22,-1366.4 -272.29,-638.3 -408.17,-1344.9 -404.11,-2100.4 4.16,-759.8 149.66,-1530.1 432.47,-2289.4 293.75,-788.4 723.38,-1530 1276.84,-2204.1 686.48,-836 1461.86,-1559.9 2304.59,-2151.6 811.73,-569.9 1649.64,-992.4 2490.39,-1255.8 478.13,-149.8 942.68,-243.5 1389.38,-280.8 -55.73,24 -110.69,49.4 -164.77,76" style="fill:#312424;fill-opacity:1;fill-rule:nonzero;stroke:none" transform="matrix(0.13333333,0,0,-0.13333333,0,2933.3333)" data-index="2"></path>
    </g>
  </g>
</svg>